<svg xmlns="http://www.w3.org/2000/svg" width="500" height="500" version="1.0" viewBox="0 0 375 375"><defs><clipPath id="a"><path d="M17.191 136.836h106.5v101.25h-106.5Zm0 0"/></clipPath></defs><path fill="#fff" d="M-37.5-37.5h450v450h-450z"/><path fill="#050505" d="M-37.5-37.5h450v450h-450z"/><g clip-path="url(#a)"><path fill="#fff" d="M123.574 193.195c-43.086 1.032-43.926 1.871-44.96 44.961-1.036-43.09-1.876-43.93-44.962-44.96 43.086-1.036 43.926-1.876 44.961-44.962 1.035 43.086 1.875 43.926 44.961 44.961Zm-81.363-56.36c-.5 20.759-.902 21.165-21.664 21.661 20.762.5 21.164.902 21.664 21.664.496-20.762.902-21.164 21.66-21.664-20.758-.496-21.164-.902-21.66-21.66ZM30.93 204.853c-.317 13.156-.575 13.41-13.727 13.726 13.152.317 13.41.574 13.727 13.73.316-13.156.574-13.413 13.726-13.73-13.156-.316-13.414-.57-13.726-13.726Zm0 0"/></g><path fill="#ff5722" d="M129.19 162.625h10.265v34.328h12.781v7.797H129.19Zm46.506 31.515c1.476-1.445 2.218-3.488 2.218-6.124 0-2.645-.742-4.676-2.218-6.094-1.48-1.414-3.184-2.125-5.11-2.125-1.918 0-3.617.719-5.093 2.156-1.481 1.438-2.22 3.48-2.22 6.125 0 2.637.739 4.668 2.22 6.094 1.476 1.418 3.175 2.125 5.093 2.125 1.926 0 3.63-.719 5.11-2.156Zm-18.422 6.235c-2.961-3.207-4.438-7.313-4.438-12.313 0-5 1.477-9.109 4.438-12.328 2.957-3.218 6.566-4.828 10.828-4.828 4.258 0 7.531 1.586 9.812 4.75v-4.39h10.25v33.484h-10.25v-4.86c-2.48 3.524-5.804 5.282-9.968 5.282-4.157 0-7.715-1.598-10.672-4.797Zm47.521-29.109v4.921c2.113-3.519 5.492-5.28 10.14-5.28 3.833 0 6.938 1.28 9.313 3.843 2.383 2.562 3.578 6.043 3.578 10.437v19.563h-10.203v-18.188c0-2.156-.57-3.82-1.703-5-1.137-1.175-2.703-1.765-4.703-1.765-2 0-3.574.59-4.719 1.765-1.137 1.18-1.703 2.844-1.703 5v18.188h-10.266v-33.484Zm43.313 24.781h3.656v8.703h-5.218c-3.762 0-6.672-.828-8.735-2.484-2.055-1.664-3.078-4.52-3.078-8.563v-13.906h-3.125v-8.531h3.125v-8.157h10.25v8.157h6.719v8.53h-6.719v13.907c0 1.563 1.04 2.344 3.125 2.344Zm22.26 9.125c-4.875 0-8.875-1.567-12-4.703-3.117-3.145-4.672-7.317-4.672-12.516 0-5.195 1.547-9.336 4.64-12.422 3.102-3.082 7.114-4.625 12.032-4.625 4.914 0 8.992 1.524 12.234 4.563 3.239 3.043 4.86 7.261 4.86 12.656 0 1.168-.078 2.25-.235 3.25h-23.03c.194 1.48.85 2.687 1.968 3.625 1.125.937 2.332 1.406 3.625 1.406 1.3 0 2.27-.129 2.906-.39.645-.258 1.117-.52 1.422-.782.3-.257.691-.687 1.172-1.28h11.094c-.961 3.355-2.883 6.062-5.766 8.124-2.875 2.063-6.293 3.094-10.25 3.094Zm6.422-20.219c-.156-1.562-.84-2.832-2.047-3.812-1.2-.977-2.621-1.47-4.266-1.47-1.636 0-3.015.493-4.14 1.47-1.117.98-1.813 2.25-2.094 3.812Zm24.905-13.687v6.25c2.394-4.407 5.594-6.61 9.594-6.61v10.438h-2.516c-2.367 0-4.137.562-5.313 1.687-1.18 1.117-1.765 3.074-1.765 5.875v15.844h-10.266v-33.484Zm22.8 0v4.921c2.113-3.519 5.492-5.28 10.14-5.28 3.832 0 6.938 1.28 9.313 3.843 2.383 2.562 3.578 6.043 3.578 10.437v19.563h-10.203v-18.188c0-2.156-.57-3.82-1.703-5-1.137-1.175-2.703-1.765-4.703-1.765-2 0-3.575.59-4.719 1.765-1.137 1.18-1.703 2.844-1.703 5v18.188h-10.266v-33.484Zm0 0"/></svg>